<svg xmlns="http://www.w3.org/2000/svg"
   width="210mm"
   height="104mm"
   viewBox="0 0 210 104"
   version="1.1"
   id="svg5">
  <g id="layer1">
    <g
       id="g10998"
       transform="translate(2.02303,-28.686104)">
      <path
         id="path10941"
         style="fill:#ff9c00;fill-opacity:1;stroke-width:0.138919"
         d="M 77.407161,28.686104 78.347673,85.499691 29.615763,56.278735 58.836719,105.01064 2.0231323,104.07013 51.695036,131.66276 h 28.252022 v -5.1e-4 c 0,-0.21616 0.0028,-0.43163 0.0083,-0.64647 0.0054,-0.21485 0.01346,-0.42939 0.02429,-0.64286 0.01082,-0.21347 0.02469,-0.42617 0.04082,-0.6382 0.01614,-0.21203 0.03494,-0.42303 0.05633,-0.63356 0.02139,-0.21052 0.04526,-0.42046 0.07183,-0.62942 0.02657,-0.20895 0.05565,-0.41693 0.08733,-0.62425 0.03169,-0.20731 0.0661,-0.41399 0.102836,-0.6196 0.03674,-0.20561 0.0761,-0.41007 0.117823,-0.61391 0.04172,-0.20384 0.08565,-0.40726 0.132291,-0.60927 0.04664,-0.202 0.09578,-0.40296 0.147278,-0.60306 0.0515,-0.20011 0.105462,-0.39924 0.161747,-0.59738 0.05629,-0.19814 0.114692,-0.39507 0.1757,-0.59118 0.06101,-0.19611 0.124504,-0.39149 0.19017,-0.58549 0.06566,-0.19401 0.133864,-0.38693 0.204122,-0.57878 0.07026,-0.19185 0.142774,-0.38244 0.217557,-0.57206 0.07478,-0.18962 0.15175,-0.37802 0.230994,-0.56534 0.07924,-0.18732 0.16079,-0.37366 0.244429,-0.55862 0.08364,-0.18496 0.169381,-0.36833 0.257349,-0.55087 0.08797,-0.18254 0.178036,-0.36411 0.270268,-0.54415 0.09223,-0.18005 0.186757,-0.35892 0.283187,-0.53641 0.09643,-0.17748 0.19451,-0.35378 0.295072,-0.52865 0.100562,-0.17486 0.203363,-0.3482 0.307992,-0.52038 0.104628,-0.17217 0.211247,-0.3432 0.319877,-0.51263 0.108629,-0.16942 0.219197,-0.33724 0.331762,-0.50384 0.112566,-0.16661 0.227214,-0.33186 0.343649,-0.49558 0.116435,-0.16372 0.234778,-0.32602 0.355017,-0.48679 0.120239,-0.16077 0.242408,-0.31974 0.366386,-0.47749 0.123977,-0.15775 0.249587,-0.31404 0.377238,-0.46871 0.12765,-0.15467 0.257349,-0.30788 0.388606,-0.4594 0.131258,-0.15152 0.264144,-0.30128 0.398943,-0.44959 0.134798,-0.1483 0.271519,-0.29525 0.409794,-0.44028 0.138274,-0.14503 0.277927,-0.28826 0.419612,-0.42995 0.141685,-0.14168 0.285435,-0.28185 0.430465,-0.42013 0.14503,-0.13827 0.291458,-0.27499 0.439766,-0.40979 0.148309,-0.1348 0.29858,-0.26768 0.450102,-0.39894 0.151522,-0.13126 0.304217,-0.26044 0.458887,-0.38809 0.15467,-0.12765 0.310953,-0.25378 0.468705,-0.37776 0.157752,-0.12397 0.317239,-0.24614 0.478007,-0.36638 0.160768,-0.12024 0.323073,-0.23859 0.486792,-0.35502 0.163719,-0.11643 0.328973,-0.23108 0.495577,-0.34365 0.166604,-0.11256 0.334421,-0.22313 0.503845,-0.33176 0.169424,-0.10863 0.340453,-0.21525 0.51263,-0.31988 0.172178,-0.10463 0.345516,-0.20691 0.520382,-0.30747 0.174866,-0.10056 0.351161,-0.19916 0.52865,-0.29559 0.177489,-0.0964 0.356356,-0.19096 0.536401,-0.28319 0.180046,-0.0922 0.3611,-0.1823 0.543636,-0.27027 0.182537,-0.088 0.366425,-0.17371 0.551388,-0.25735 0.184963,-0.0836 0.3713,-0.16518 0.558622,-0.24442 0.187323,-0.0793 0.375723,-0.15621 0.56534,-0.231 0.189617,-0.0748 0.380213,-0.1473 0.572059,-0.21756 0.191845,-0.0703 0.384767,-0.13845 0.578776,-0.20412 0.194009,-0.0657 0.389387,-0.12864 0.585494,-0.18965 0.196106,-0.061 0.39304,-0.11993 0.591178,-0.17622 0.198138,-0.0563 0.397275,-0.11025 0.597379,-0.16174 0.200105,-0.0515 0.401059,-0.10064 0.603064,-0.14728 0.202006,-0.0466 0.404909,-0.0906 0.608749,-0.13229 0.203839,-0.0417 0.408829,-0.0811 0.614429,-0.11783 0.20561,-0.0367 0.41178,-0.0711 0.61909,-0.10283 0.20731,-0.0317 0.41582,-0.0608 0.62477,-0.0873 0.20895,-0.0266 0.41837,-0.0504 0.6289,-0.0718 0.21052,-0.0214 0.42204,-0.0402 0.63407,-0.0563 0.21203,-0.0161 0.42473,-0.0295 0.6382,-0.0403 0.21347,-0.0108 0.42749,-0.0188 0.64234,-0.0243 0.21485,-0.005 0.43032,-0.008 0.64647,-0.008 0.21616,0 0.43163,0.003 0.64647,0.008 0.21485,0.005 0.42939,0.0135 0.64286,0.0243 0.21347,0.0108 0.42617,0.0242 0.6382,0.0403 0.21203,0.0161 0.42355,0.0349 0.63407,0.0563 0.21053,0.0214 0.41995,0.0453 0.62891,0.0718 0.20895,0.0266 0.41693,0.0556 0.62425,0.0873 0.20731,0.0317 0.41399,0.0661 0.6196,0.10283 0.20561,0.0367 0.41059,0.0761 0.61443,0.11783 0.20384,0.0417 0.40674,0.0856 0.60875,0.13229 0.202,0.0466 0.40296,0.0958 0.60306,0.14728 0.20011,0.0515 0.39924,0.10546 0.59738,0.16174 0.19814,0.0563 0.39507,0.11521 0.59118,0.17622 0.19611,0.061 0.39149,0.12399 0.58549,0.18965 0.19401,0.0657 0.38693,0.13387 0.57878,0.20412 0.19185,0.0703 0.38244,0.14278 0.57206,0.21756 0.18962,0.0748 0.37802,0.15175 0.56534,0.231 0.18732,0.0792 0.37366,0.16079 0.55862,0.24442 0.18496,0.0836 0.36885,0.16939 0.55139,0.25735 0.18254,0.088 0.36359,0.17804 0.54363,0.27027 0.18005,0.0922 0.35892,0.18676 0.53641,0.28319 0.17748,0.0964 0.35378,0.19503 0.52865,0.29559 0.17486,0.10056 0.3482,0.20284 0.52038,0.30747 0.17217,0.10463 0.3432,0.21125 0.51263,0.31988 0.16942,0.10863 0.33724,0.2192 0.50384,0.33176 0.16661,0.11257 0.33186,0.22722 0.49558,0.34365 0.16372,0.11644 0.32602,0.23478 0.48679,0.35502 0.16077,0.12024 0.32026,0.24241 0.47801,0.36638 0.15775,0.12398 0.31352,0.25011 0.46819,0.37776 0.15467,0.12765 0.30788,0.25683 0.4594,0.38809 0.15152,0.13126 0.30179,0.26414 0.4501,0.39894 0.14831,0.1348 0.29474,0.27152 0.43977,0.40979 0.14503,0.13828 0.28826,0.27845 0.42995,0.42013 0.14168,0.14169 0.28185,0.28492 0.42013,0.42995 0.13827,0.14503 0.27499,0.29198 0.40979,0.44028 0.1348,0.14831 0.26768,0.29807 0.39894,0.44959 0.13126,0.15152 0.26096,0.30473 0.38861,0.4594 0.12765,0.15467 0.25326,0.31096 0.37724,0.46871 0.12397,0.15775 0.24614,0.31672 0.36638,0.47749 0.12024,0.16077 0.23859,0.32307 0.35502,0.48679 0.11643,0.16372 0.23108,0.32897 0.34365,0.49558 0.11256,0.1666 0.22313,0.33442 0.33176,0.50384 0.10863,0.16943 0.21525,0.34046 0.31988,0.51263 0.10463,0.17218 0.20691,0.34552 0.30747,0.52038 0.10056,0.17487 0.19916,0.35117 0.29559,0.52865 0.0964,0.17749 0.19096,0.35636 0.28319,0.53641 0.0922,0.18004 0.1823,0.3611 0.27027,0.54363 0.088,0.18254 0.17371,0.36643 0.25735,0.55139 0.0836,0.18496 0.16518,0.3713 0.24442,0.55862 0.0793,0.18732 0.15621,0.37572 0.231,0.56534 0.0748,0.18962 0.1473,0.38021 0.21756,0.57206 0.0703,0.19185 0.13845,0.38477 0.20412,0.57878 0.0657,0.19401 0.12864,0.38938 0.18965,0.58549 0.061,0.19611 0.11993,0.39304 0.17622,0.59118 0.0563,0.19814 0.11025,0.39727 0.16174,0.59738 0.0515,0.2001 0.10064,0.40106 0.14728,0.60306 0.0466,0.20201 0.0906,0.40543 0.13229,0.60927 0.0417,0.20384 0.0811,0.4083 0.11783,0.61391 0.0367,0.20561 0.0712,0.41229 0.10283,0.6196 0.0317,0.20732 0.0608,0.4153 0.0873,0.62425 0.0266,0.20896 0.0504,0.4189 0.0718,0.62942 0.0214,0.21053 0.0402,0.42153 0.0563,0.63356 0.0161,0.21203 0.0295,0.42473 0.0403,0.6382 0.0108,0.21347 0.0194,0.42801 0.0248,0.64286 0.005,0.21484 0.008,0.43031 0.008,0.64647 v 5.1e-4 h 28.25254 l 49.6719,-27.59263 -56.81359,0.94051 29.22096,-48.731905 -48.73191,29.220956 0.93999,-56.813587 -27.59263,49.671904 z" />
      <path
         id="path10979"
         style="fill:#d45500;fill-opacity:1;stroke-width:0.264583"
         d="m 2.0231323,104.07013 78.7734867,21.10724 c 0.0333,-0.12454 0.06612,-0.24933 0.101285,-0.3731 0.05629,-0.19814 0.114692,-0.39507 0.1757,-0.59118 0.06101,-0.19611 0.124504,-0.39149 0.19017,-0.58549 0.06566,-0.19401 0.133864,-0.38693 0.204122,-0.57878 0.07026,-0.19185 0.142774,-0.38244 0.217557,-0.57206 0.07478,-0.18962 0.15175,-0.37802 0.230994,-0.56534 0.07924,-0.18732 0.16079,-0.37366 0.244429,-0.55862 0.08364,-0.18496 0.169381,-0.36833 0.257349,-0.55087 0.08797,-0.18254 0.178036,-0.36411 0.270268,-0.54415 0.09223,-0.18005 0.186757,-0.35892 0.283187,-0.53641 0.09643,-0.17748 0.19451,-0.35378 0.295072,-0.52865 0.01117,-0.0194 0.02288,-0.0385 0.03411,-0.0579 l -24.46414,-14.12421 z" />
      <path
         id="path10972"
         style="fill:#d45500;fill-opacity:1;stroke-width:0.264583"
         d="m 29.615763,56.278735 57.669865,57.669345 c 0.141685,-0.14168 0.285435,-0.28185 0.430465,-0.42013 0.14503,-0.13827 0.291458,-0.27499 0.439766,-0.40979 0.148309,-0.1348 0.29858,-0.26768 0.450102,-0.39894 0.151522,-0.13126 0.304217,-0.26044 0.458887,-0.38809 0.15467,-0.12765 0.310953,-0.25378 0.468705,-0.37776 0.157752,-0.12397 0.317239,-0.24614 0.478007,-0.36638 0.160768,-0.12024 0.323073,-0.23859 0.486792,-0.35502 0.163719,-0.11643 0.328973,-0.23108 0.495577,-0.34365 0.166604,-0.11256 0.334421,-0.22313 0.503845,-0.33176 0.169424,-0.10863 0.340453,-0.21525 0.51263,-0.31988 0.152713,-0.0928 0.306641,-0.18325 0.461471,-0.27285 L 78.347673,85.499691 Z" />
      <path
         id="path10965"
         style="fill:#d45500;fill-opacity:1;stroke-width:0.264583"
         d="M 77.407161,28.686104 98.5144,107.45907 c 0.07519,-0.0201 0.14984,-0.0416 0.225309,-0.061 0.200105,-0.0515 0.401059,-0.10064 0.603064,-0.14728 0.202006,-0.0466 0.404909,-0.0906 0.608749,-0.13229 0.203838,-0.0417 0.408828,-0.0811 0.614428,-0.11783 0.20561,-0.0367 0.41178,-0.0711 0.61909,-0.10283 0.20731,-0.0317 0.41582,-0.0608 0.62477,-0.0873 0.20895,-0.0266 0.41837,-0.0504 0.6289,-0.0718 0.21052,-0.0214 0.42204,-0.0402 0.63407,-0.0563 0.21203,-0.0161 0.42473,-0.0295 0.6382,-0.0403 0.21347,-0.0108 0.42749,-0.0188 0.64234,-0.0243 0.21485,-0.005 0.43032,-0.008 0.64647,-0.008 V 78.358008 Z" />
      <path
         id="path10958"
         style="fill:#d45500;fill-opacity:1;stroke-width:0.264583"
         d="m 132.59242,28.686104 -21.10724,78.772966 c 0.12434,0.0333 0.24902,0.0657 0.37259,0.10077 0.19814,0.0563 0.39507,0.11521 0.59118,0.17622 0.19611,0.061 0.39149,0.12399 0.58549,0.18965 0.19401,0.0657 0.38693,0.13387 0.57878,0.20412 0.19185,0.0703 0.38244,0.14278 0.57206,0.21756 0.18962,0.0748 0.37802,0.15175 0.56534,0.231 0.18732,0.0792 0.37366,0.16079 0.55862,0.24442 0.18496,0.0836 0.36885,0.16939 0.55139,0.25735 0.18254,0.088 0.36359,0.17804 0.54363,0.27027 0.18005,0.0922 0.35892,0.18676 0.53641,0.28319 0.17748,0.0964 0.35378,0.19503 0.52865,0.29559 0.0196,0.0113 0.0388,0.0233 0.0584,0.0346 l 14.12472,-24.464139 z" />
      <path
         id="path10951"
         style="fill:#d45500;fill-opacity:1;stroke-width:0.264583"
         d="M 180.38434,56.278735 122.71447,113.9486 c 0.14151,0.14152 0.28151,0.28458 0.41962,0.42943 0.13827,0.14503 0.27499,0.29198 0.40979,0.44028 0.1348,0.14831 0.26768,0.29807 0.39894,0.44959 0.13126,0.15152 0.26096,0.30473 0.38861,0.4594 0.12765,0.15467 0.25326,0.31096 0.37724,0.46871 0.12397,0.15775 0.24614,0.31672 0.36638,0.47749 0.12024,0.16077 0.23859,0.32307 0.35502,0.48679 0.11643,0.16372 0.23108,0.32897 0.34365,0.49558 0.11256,0.1666 0.22313,0.33442 0.33176,0.50384 0.10863,0.16943 0.21525,0.34046 0.31988,0.51263 0.093,0.15304 0.18358,0.30734 0.27337,0.46251 l 24.46465,-14.12421 z" />
      <path
         id="path10946"
         style="fill:#d45500;fill-opacity:1;stroke-width:0.264583"
         d="m 207.97697,104.07013 -78.77349,21.10724 c 0.02,0.0748 0.0411,0.14917 0.0605,0.22428 0.0515,0.2001 0.10064,0.40106 0.14728,0.60306 0.0466,0.20201 0.0906,0.40543 0.13229,0.60927 0.0417,0.20384 0.0811,0.4083 0.11783,0.61391 0.0367,0.20561 0.0712,0.41229 0.10283,0.6196 0.0317,0.20732 0.0608,0.4153 0.0873,0.62425 0.0266,0.20896 0.0504,0.4189 0.0718,0.62942 0.0214,0.21053 0.0402,0.42153 0.0563,0.63356 0.0161,0.21203 0.0295,0.42473 0.0403,0.6382 0.0108,0.21347 0.0194,0.42801 0.0248,0.64286 0.005,0.21484 0.008,0.43031 0.008,0.64647 v 5.1e-4 h 28.25254 z" />
    </g>
  </g>
</svg>
